<mxfile host="app.diagrams.net" modified="2022-05-30T13:25:43.367Z" agent="5.0 (Windows NT 10.0; Win64; x64) AppleWebKit/537.36 (KHTML, like Gecko) Chrome/102.0.5005.61 Safari/537.36" etag="XMCDruQzGPo6_CMHla1f" version="18.0.3" type="github" pages="2">
  <diagram id="C5RBs43oDa-KdzZeNtuy" name="Employee Permit Status">
    <mxGraphModel dx="1278" dy="547" grid="1" gridSize="10" guides="1" tooltips="1" connect="1" arrows="1" fold="1" page="1" pageScale="1" pageWidth="827" pageHeight="1169" math="0" shadow="0">
      <root>
        <mxCell id="WIyWlLk6GJQsqaUBKTNV-0" />
        <mxCell id="WIyWlLk6GJQsqaUBKTNV-1" parent="WIyWlLk6GJQsqaUBKTNV-0" />
        <mxCell id="WIyWlLk6GJQsqaUBKTNV-2" value="" style="rounded=0;html=1;jettySize=auto;orthogonalLoop=1;fontSize=11;endArrow=block;endFill=0;endSize=8;strokeWidth=1;shadow=0;labelBackgroundColor=none;edgeStyle=orthogonalEdgeStyle;" parent="WIyWlLk6GJQsqaUBKTNV-1" source="WIyWlLk6GJQsqaUBKTNV-3" target="WIyWlLk6GJQsqaUBKTNV-6" edge="1">
          <mxGeometry relative="1" as="geometry" />
        </mxCell>
        <mxCell id="WIyWlLk6GJQsqaUBKTNV-3" value="List of Applications" style="rounded=1;whiteSpace=wrap;html=1;fontSize=12;glass=0;strokeWidth=1;shadow=0;fillColor=#FFF2CC;" parent="WIyWlLk6GJQsqaUBKTNV-1" vertex="1">
          <mxGeometry x="160" y="80" width="120" height="40" as="geometry" />
        </mxCell>
        <mxCell id="WIyWlLk6GJQsqaUBKTNV-4" value="Yes" style="rounded=0;html=1;jettySize=auto;orthogonalLoop=1;fontSize=11;endArrow=block;endFill=0;endSize=8;strokeWidth=1;shadow=0;labelBackgroundColor=none;edgeStyle=orthogonalEdgeStyle;startArrow=none;" parent="WIyWlLk6GJQsqaUBKTNV-1" target="WIyWlLk6GJQsqaUBKTNV-10" edge="1">
          <mxGeometry y="20" relative="1" as="geometry">
            <mxPoint as="offset" />
            <mxPoint x="220" y="460" as="sourcePoint" />
            <Array as="points">
              <mxPoint x="220" y="470" />
              <mxPoint x="220" y="470" />
            </Array>
          </mxGeometry>
        </mxCell>
        <mxCell id="WIyWlLk6GJQsqaUBKTNV-5" value="No" style="edgeStyle=orthogonalEdgeStyle;rounded=0;html=1;jettySize=auto;orthogonalLoop=1;fontSize=11;endArrow=block;endFill=0;endSize=8;strokeWidth=1;shadow=0;labelBackgroundColor=none;" parent="WIyWlLk6GJQsqaUBKTNV-1" source="WIyWlLk6GJQsqaUBKTNV-6" target="WIyWlLk6GJQsqaUBKTNV-7" edge="1">
          <mxGeometry y="10" relative="1" as="geometry">
            <mxPoint as="offset" />
          </mxGeometry>
        </mxCell>
        <mxCell id="r70ikFuNxUVIptoFKFaD-33" style="edgeStyle=orthogonalEdgeStyle;rounded=0;orthogonalLoop=1;jettySize=auto;html=1;exitX=0.5;exitY=1;exitDx=0;exitDy=0;entryX=0.5;entryY=0;entryDx=0;entryDy=0;" edge="1" parent="WIyWlLk6GJQsqaUBKTNV-1" source="WIyWlLk6GJQsqaUBKTNV-6" target="r70ikFuNxUVIptoFKFaD-2">
          <mxGeometry relative="1" as="geometry" />
        </mxCell>
        <mxCell id="WIyWlLk6GJQsqaUBKTNV-6" value="NO &amp;gt; 1" style="rhombus;whiteSpace=wrap;html=1;shadow=0;fontFamily=Helvetica;fontSize=12;align=center;strokeWidth=1;spacing=6;spacingTop=-4;" parent="WIyWlLk6GJQsqaUBKTNV-1" vertex="1">
          <mxGeometry x="170" y="150" width="100" height="80" as="geometry" />
        </mxCell>
        <mxCell id="WIyWlLk6GJQsqaUBKTNV-7" value="Permit status In Progress" style="rounded=1;whiteSpace=wrap;html=1;fontSize=12;glass=0;strokeWidth=1;shadow=0;fillColor=#FFFF99;" parent="WIyWlLk6GJQsqaUBKTNV-1" vertex="1">
          <mxGeometry x="330" y="170" width="120" height="40" as="geometry" />
        </mxCell>
        <mxCell id="WIyWlLk6GJQsqaUBKTNV-8" value="No" style="rounded=0;html=1;jettySize=auto;orthogonalLoop=1;fontSize=11;endArrow=block;endFill=0;endSize=8;strokeWidth=1;shadow=0;labelBackgroundColor=none;edgeStyle=orthogonalEdgeStyle;" parent="WIyWlLk6GJQsqaUBKTNV-1" source="WIyWlLk6GJQsqaUBKTNV-10" edge="1">
          <mxGeometry x="0.3333" y="20" relative="1" as="geometry">
            <mxPoint as="offset" />
            <mxPoint x="220" y="580" as="targetPoint" />
          </mxGeometry>
        </mxCell>
        <mxCell id="WIyWlLk6GJQsqaUBKTNV-9" value="Yes" style="edgeStyle=orthogonalEdgeStyle;rounded=0;html=1;jettySize=auto;orthogonalLoop=1;fontSize=11;endArrow=block;endFill=0;endSize=8;strokeWidth=1;shadow=0;labelBackgroundColor=none;" parent="WIyWlLk6GJQsqaUBKTNV-1" source="WIyWlLk6GJQsqaUBKTNV-10" target="WIyWlLk6GJQsqaUBKTNV-12" edge="1">
          <mxGeometry y="10" relative="1" as="geometry">
            <mxPoint as="offset" />
          </mxGeometry>
        </mxCell>
        <mxCell id="WIyWlLk6GJQsqaUBKTNV-10" value="Permit Ex. Date &amp;gt; 90 days" style="rhombus;whiteSpace=wrap;html=1;shadow=0;fontFamily=Helvetica;fontSize=12;align=center;strokeWidth=1;spacing=6;spacingTop=-4;" parent="WIyWlLk6GJQsqaUBKTNV-1" vertex="1">
          <mxGeometry x="155" y="400" width="130" height="110" as="geometry" />
        </mxCell>
        <mxCell id="WIyWlLk6GJQsqaUBKTNV-12" value="Permit status&amp;nbsp; Expiring Soon" style="rounded=1;whiteSpace=wrap;html=1;fontSize=12;glass=0;strokeWidth=1;shadow=0;fillColor=#FF3333;" parent="WIyWlLk6GJQsqaUBKTNV-1" vertex="1">
          <mxGeometry x="370" y="435" width="120" height="40" as="geometry" />
        </mxCell>
        <mxCell id="r70ikFuNxUVIptoFKFaD-6" style="edgeStyle=orthogonalEdgeStyle;rounded=0;orthogonalLoop=1;jettySize=auto;html=1;exitX=0.5;exitY=1;exitDx=0;exitDy=0;entryX=0.5;entryY=0;entryDx=0;entryDy=0;" edge="1" parent="WIyWlLk6GJQsqaUBKTNV-1" source="r70ikFuNxUVIptoFKFaD-2" target="WIyWlLk6GJQsqaUBKTNV-10">
          <mxGeometry relative="1" as="geometry" />
        </mxCell>
        <mxCell id="r70ikFuNxUVIptoFKFaD-2" value="Retrieve Latest Completed Application" style="rounded=0;whiteSpace=wrap;html=1;fillColor=#FFCCE6;" vertex="1" parent="WIyWlLk6GJQsqaUBKTNV-1">
          <mxGeometry x="160" y="270" width="120" height="60" as="geometry" />
        </mxCell>
        <mxCell id="r70ikFuNxUVIptoFKFaD-4" value="" style="shape=umlActor;verticalLabelPosition=bottom;verticalAlign=top;html=1;outlineConnect=0;" vertex="1" parent="WIyWlLk6GJQsqaUBKTNV-1">
          <mxGeometry x="205" y="20" width="30" height="60" as="geometry" />
        </mxCell>
        <mxCell id="r70ikFuNxUVIptoFKFaD-9" style="edgeStyle=orthogonalEdgeStyle;rounded=0;orthogonalLoop=1;jettySize=auto;html=1;exitX=1;exitY=0.5;exitDx=0;exitDy=0;" edge="1" parent="WIyWlLk6GJQsqaUBKTNV-1" source="r70ikFuNxUVIptoFKFaD-7" target="r70ikFuNxUVIptoFKFaD-8">
          <mxGeometry relative="1" as="geometry" />
        </mxCell>
        <mxCell id="r70ikFuNxUVIptoFKFaD-7" value="Permit Ex. Date &amp;gt; 30 days" style="rhombus;whiteSpace=wrap;html=1;shadow=0;fontFamily=Helvetica;fontSize=12;align=center;strokeWidth=1;spacing=6;spacingTop=-4;" vertex="1" parent="WIyWlLk6GJQsqaUBKTNV-1">
          <mxGeometry x="155" y="580" width="130" height="90" as="geometry" />
        </mxCell>
        <mxCell id="r70ikFuNxUVIptoFKFaD-8" value="Permit status&lt;br&gt;&amp;nbsp;Expiring Soon" style="rounded=1;whiteSpace=wrap;html=1;fontSize=12;glass=0;strokeWidth=1;shadow=0;fillColor=#FF3333;" vertex="1" parent="WIyWlLk6GJQsqaUBKTNV-1">
          <mxGeometry x="380" y="605" width="120" height="40" as="geometry" />
        </mxCell>
        <mxCell id="r70ikFuNxUVIptoFKFaD-15" value="" style="edgeStyle=orthogonalEdgeStyle;rounded=0;orthogonalLoop=1;jettySize=auto;html=1;entryX=0.5;entryY=0;entryDx=0;entryDy=0;entryPerimeter=0;" edge="1" parent="WIyWlLk6GJQsqaUBKTNV-1" source="r70ikFuNxUVIptoFKFaD-11" target="r70ikFuNxUVIptoFKFaD-25">
          <mxGeometry relative="1" as="geometry">
            <mxPoint x="217.5" y="880" as="targetPoint" />
          </mxGeometry>
        </mxCell>
        <mxCell id="r70ikFuNxUVIptoFKFaD-19" style="edgeStyle=orthogonalEdgeStyle;rounded=0;orthogonalLoop=1;jettySize=auto;html=1;" edge="1" parent="WIyWlLk6GJQsqaUBKTNV-1" source="r70ikFuNxUVIptoFKFaD-11" target="r70ikFuNxUVIptoFKFaD-18">
          <mxGeometry relative="1" as="geometry" />
        </mxCell>
        <mxCell id="r70ikFuNxUVIptoFKFaD-11" value="Permit Ex. Date &amp;gt; 10 Days" style="strokeWidth=2;html=1;shape=mxgraph.flowchart.decision;whiteSpace=wrap;fillColor=#FFFFFF;" vertex="1" parent="WIyWlLk6GJQsqaUBKTNV-1">
          <mxGeometry x="145" y="700" width="150" height="110" as="geometry" />
        </mxCell>
        <mxCell id="r70ikFuNxUVIptoFKFaD-16" value="Yes" style="text;html=1;strokeColor=none;fillColor=none;align=center;verticalAlign=middle;whiteSpace=wrap;rounded=0;" vertex="1" parent="WIyWlLk6GJQsqaUBKTNV-1">
          <mxGeometry x="270" y="590" width="60" height="30" as="geometry" />
        </mxCell>
        <mxCell id="r70ikFuNxUVIptoFKFaD-18" value="Permit status&lt;br&gt;&amp;nbsp;Expiring Soon" style="rounded=1;whiteSpace=wrap;html=1;fontSize=12;glass=0;strokeWidth=1;shadow=0;fillColor=#FF3333;" vertex="1" parent="WIyWlLk6GJQsqaUBKTNV-1">
          <mxGeometry x="380" y="735" width="120" height="40" as="geometry" />
        </mxCell>
        <mxCell id="r70ikFuNxUVIptoFKFaD-20" value="No" style="text;html=1;strokeColor=none;fillColor=none;align=center;verticalAlign=middle;whiteSpace=wrap;rounded=0;" vertex="1" parent="WIyWlLk6GJQsqaUBKTNV-1">
          <mxGeometry x="220" y="670" width="60" height="30" as="geometry" />
        </mxCell>
        <mxCell id="r70ikFuNxUVIptoFKFaD-21" value="Yes" style="text;html=1;strokeColor=none;fillColor=none;align=center;verticalAlign=middle;whiteSpace=wrap;rounded=0;" vertex="1" parent="WIyWlLk6GJQsqaUBKTNV-1">
          <mxGeometry x="300" y="730" width="60" height="30" as="geometry" />
        </mxCell>
        <mxCell id="r70ikFuNxUVIptoFKFaD-23" value="No" style="text;html=1;strokeColor=none;fillColor=none;align=center;verticalAlign=middle;whiteSpace=wrap;rounded=0;" vertex="1" parent="WIyWlLk6GJQsqaUBKTNV-1">
          <mxGeometry x="220" y="840" width="60" height="30" as="geometry" />
        </mxCell>
        <mxCell id="r70ikFuNxUVIptoFKFaD-24" style="edgeStyle=orthogonalEdgeStyle;rounded=0;orthogonalLoop=1;jettySize=auto;html=1;exitX=0;exitY=0;exitDx=0;exitDy=0;entryX=0;entryY=1;entryDx=0;entryDy=0;" edge="1" parent="WIyWlLk6GJQsqaUBKTNV-1" source="r70ikFuNxUVIptoFKFaD-20" target="r70ikFuNxUVIptoFKFaD-20">
          <mxGeometry relative="1" as="geometry" />
        </mxCell>
        <mxCell id="r70ikFuNxUVIptoFKFaD-26" style="edgeStyle=orthogonalEdgeStyle;rounded=0;orthogonalLoop=1;jettySize=auto;html=1;exitX=1;exitY=0.5;exitDx=0;exitDy=0;exitPerimeter=0;" edge="1" parent="WIyWlLk6GJQsqaUBKTNV-1" source="r70ikFuNxUVIptoFKFaD-25">
          <mxGeometry relative="1" as="geometry">
            <mxPoint x="410" y="950" as="targetPoint" />
          </mxGeometry>
        </mxCell>
        <mxCell id="r70ikFuNxUVIptoFKFaD-30" style="edgeStyle=orthogonalEdgeStyle;rounded=0;orthogonalLoop=1;jettySize=auto;html=1;exitX=0.5;exitY=1;exitDx=0;exitDy=0;exitPerimeter=0;entryX=0.5;entryY=0;entryDx=0;entryDy=0;" edge="1" parent="WIyWlLk6GJQsqaUBKTNV-1" source="r70ikFuNxUVIptoFKFaD-25" target="r70ikFuNxUVIptoFKFaD-29">
          <mxGeometry relative="1" as="geometry" />
        </mxCell>
        <mxCell id="r70ikFuNxUVIptoFKFaD-25" value="Permit Ex Date &amp;gt; 0 Days&amp;nbsp;" style="strokeWidth=2;html=1;shape=mxgraph.flowchart.decision;whiteSpace=wrap;fillColor=#FFFFFF;" vertex="1" parent="WIyWlLk6GJQsqaUBKTNV-1">
          <mxGeometry x="140" y="890" width="160" height="120" as="geometry" />
        </mxCell>
        <mxCell id="r70ikFuNxUVIptoFKFaD-27" value="Permit status&lt;br&gt;Expired" style="rounded=1;whiteSpace=wrap;html=1;fontSize=12;glass=0;strokeWidth=1;shadow=0;fillColor=#FF3333;" vertex="1" parent="WIyWlLk6GJQsqaUBKTNV-1">
          <mxGeometry x="410" y="930" width="120" height="40" as="geometry" />
        </mxCell>
        <mxCell id="r70ikFuNxUVIptoFKFaD-28" value="Yes" style="text;html=1;strokeColor=none;fillColor=none;align=center;verticalAlign=middle;whiteSpace=wrap;rounded=0;" vertex="1" parent="WIyWlLk6GJQsqaUBKTNV-1">
          <mxGeometry x="350" y="920" width="60" height="30" as="geometry" />
        </mxCell>
        <mxCell id="r70ikFuNxUVIptoFKFaD-29" value="Granted" style="rounded=1;whiteSpace=wrap;html=1;fontSize=12;glass=0;strokeWidth=1;shadow=0;fillColor=#00CC00;" vertex="1" parent="WIyWlLk6GJQsqaUBKTNV-1">
          <mxGeometry x="160" y="1060" width="120" height="40" as="geometry" />
        </mxCell>
        <mxCell id="r70ikFuNxUVIptoFKFaD-31" value="Yes" style="text;html=1;strokeColor=none;fillColor=none;align=center;verticalAlign=middle;whiteSpace=wrap;rounded=0;" vertex="1" parent="WIyWlLk6GJQsqaUBKTNV-1">
          <mxGeometry x="225" y="230" width="60" height="30" as="geometry" />
        </mxCell>
        <mxCell id="r70ikFuNxUVIptoFKFaD-34" value="Employee" style="text;html=1;strokeColor=none;fillColor=none;align=center;verticalAlign=middle;whiteSpace=wrap;rounded=0;" vertex="1" parent="WIyWlLk6GJQsqaUBKTNV-1">
          <mxGeometry x="145" y="10" width="60" height="30" as="geometry" />
        </mxCell>
      </root>
    </mxGraphModel>
  </diagram>
  <diagram id="UWfWN6vajYMCqa3t756b" name="Workflow Permit Status">
    <mxGraphModel dx="1278" dy="547" grid="1" gridSize="10" guides="1" tooltips="1" connect="1" arrows="1" fold="1" page="1" pageScale="1" pageWidth="827" pageHeight="1169" math="0" shadow="0">
      <root>
        <mxCell id="0" />
        <mxCell id="1" parent="0" />
        <mxCell id="4GRrqu41O3Qp7ZYQL6ao-1" value="" style="rounded=0;html=1;jettySize=auto;orthogonalLoop=1;fontSize=11;endArrow=block;endFill=0;endSize=8;strokeWidth=1;shadow=0;labelBackgroundColor=none;edgeStyle=orthogonalEdgeStyle;" edge="1" parent="1" source="4GRrqu41O3Qp7ZYQL6ao-2" target="4GRrqu41O3Qp7ZYQL6ao-6">
          <mxGeometry relative="1" as="geometry" />
        </mxCell>
        <mxCell id="4GRrqu41O3Qp7ZYQL6ao-2" value="Application" style="rounded=1;whiteSpace=wrap;html=1;fontSize=12;glass=0;strokeWidth=1;shadow=0;fillColor=#FFF2CC;" vertex="1" parent="1">
          <mxGeometry x="160" y="80" width="120" height="40" as="geometry" />
        </mxCell>
        <mxCell id="4GRrqu41O3Qp7ZYQL6ao-3" value="Yes" style="rounded=0;html=1;jettySize=auto;orthogonalLoop=1;fontSize=11;endArrow=block;endFill=0;endSize=8;strokeWidth=1;shadow=0;labelBackgroundColor=none;edgeStyle=orthogonalEdgeStyle;startArrow=none;" edge="1" parent="1" target="4GRrqu41O3Qp7ZYQL6ao-10">
          <mxGeometry y="20" relative="1" as="geometry">
            <mxPoint as="offset" />
            <mxPoint x="220" y="460" as="sourcePoint" />
            <Array as="points">
              <mxPoint x="220" y="470" />
              <mxPoint x="220" y="470" />
            </Array>
          </mxGeometry>
        </mxCell>
        <mxCell id="f8aLjEW6WF-jgsMXcvVk-3" style="edgeStyle=orthogonalEdgeStyle;rounded=0;orthogonalLoop=1;jettySize=auto;html=1;exitX=0.5;exitY=1;exitDx=0;exitDy=0;entryX=0.5;entryY=0;entryDx=0;entryDy=0;" edge="1" parent="1" source="4GRrqu41O3Qp7ZYQL6ao-6" target="4GRrqu41O3Qp7ZYQL6ao-10">
          <mxGeometry relative="1" as="geometry" />
        </mxCell>
        <mxCell id="f8aLjEW6WF-jgsMXcvVk-4" style="edgeStyle=orthogonalEdgeStyle;rounded=0;orthogonalLoop=1;jettySize=auto;html=1;exitX=1;exitY=0.5;exitDx=0;exitDy=0;entryX=0;entryY=0.5;entryDx=0;entryDy=0;" edge="1" parent="1" source="4GRrqu41O3Qp7ZYQL6ao-6" target="4GRrqu41O3Qp7ZYQL6ao-7">
          <mxGeometry relative="1" as="geometry" />
        </mxCell>
        <mxCell id="4GRrqu41O3Qp7ZYQL6ao-6" value="Application status : In Progress" style="rhombus;whiteSpace=wrap;html=1;shadow=0;fontFamily=Helvetica;fontSize=12;align=center;strokeWidth=1;spacing=6;spacingTop=-4;" vertex="1" parent="1">
          <mxGeometry x="170" y="190" width="100" height="80" as="geometry" />
        </mxCell>
        <mxCell id="4GRrqu41O3Qp7ZYQL6ao-7" value="Permit status:&amp;nbsp; In Progress" style="rounded=1;whiteSpace=wrap;html=1;fontSize=12;glass=0;strokeWidth=1;shadow=0;fillColor=#FFFF99;" vertex="1" parent="1">
          <mxGeometry x="370" y="210" width="120" height="40" as="geometry" />
        </mxCell>
        <mxCell id="4GRrqu41O3Qp7ZYQL6ao-8" value="No" style="rounded=0;html=1;jettySize=auto;orthogonalLoop=1;fontSize=11;endArrow=block;endFill=0;endSize=8;strokeWidth=1;shadow=0;labelBackgroundColor=none;edgeStyle=orthogonalEdgeStyle;" edge="1" parent="1" source="4GRrqu41O3Qp7ZYQL6ao-10">
          <mxGeometry x="0.3333" y="20" relative="1" as="geometry">
            <mxPoint as="offset" />
            <mxPoint x="220" y="580" as="targetPoint" />
          </mxGeometry>
        </mxCell>
        <mxCell id="4GRrqu41O3Qp7ZYQL6ao-9" value="Yes" style="edgeStyle=orthogonalEdgeStyle;rounded=0;html=1;jettySize=auto;orthogonalLoop=1;fontSize=11;endArrow=block;endFill=0;endSize=8;strokeWidth=1;shadow=0;labelBackgroundColor=none;" edge="1" parent="1" source="4GRrqu41O3Qp7ZYQL6ao-10" target="4GRrqu41O3Qp7ZYQL6ao-11">
          <mxGeometry y="10" relative="1" as="geometry">
            <mxPoint as="offset" />
          </mxGeometry>
        </mxCell>
        <mxCell id="4GRrqu41O3Qp7ZYQL6ao-10" value="Permit Ex. Date &amp;gt; 90 days" style="rhombus;whiteSpace=wrap;html=1;shadow=0;fontFamily=Helvetica;fontSize=12;align=center;strokeWidth=1;spacing=6;spacingTop=-4;" vertex="1" parent="1">
          <mxGeometry x="155" y="400" width="130" height="110" as="geometry" />
        </mxCell>
        <mxCell id="4GRrqu41O3Qp7ZYQL6ao-11" value="Permit status&amp;nbsp; Expiring Soon" style="rounded=1;whiteSpace=wrap;html=1;fontSize=12;glass=0;strokeWidth=1;shadow=0;fillColor=#FF3333;" vertex="1" parent="1">
          <mxGeometry x="370" y="435" width="120" height="40" as="geometry" />
        </mxCell>
        <mxCell id="4GRrqu41O3Qp7ZYQL6ao-14" value="" style="shape=umlActor;verticalLabelPosition=bottom;verticalAlign=top;html=1;outlineConnect=0;" vertex="1" parent="1">
          <mxGeometry x="205" y="20" width="30" height="60" as="geometry" />
        </mxCell>
        <mxCell id="4GRrqu41O3Qp7ZYQL6ao-15" style="edgeStyle=orthogonalEdgeStyle;rounded=0;orthogonalLoop=1;jettySize=auto;html=1;exitX=1;exitY=0.5;exitDx=0;exitDy=0;" edge="1" parent="1" source="4GRrqu41O3Qp7ZYQL6ao-16" target="4GRrqu41O3Qp7ZYQL6ao-17">
          <mxGeometry relative="1" as="geometry" />
        </mxCell>
        <mxCell id="4GRrqu41O3Qp7ZYQL6ao-16" value="Permit Ex. Date &amp;gt; 30 days" style="rhombus;whiteSpace=wrap;html=1;shadow=0;fontFamily=Helvetica;fontSize=12;align=center;strokeWidth=1;spacing=6;spacingTop=-4;" vertex="1" parent="1">
          <mxGeometry x="155" y="580" width="130" height="90" as="geometry" />
        </mxCell>
        <mxCell id="4GRrqu41O3Qp7ZYQL6ao-17" value="Permit status&lt;br&gt;&amp;nbsp;Expiring Soon" style="rounded=1;whiteSpace=wrap;html=1;fontSize=12;glass=0;strokeWidth=1;shadow=0;fillColor=#FF3333;" vertex="1" parent="1">
          <mxGeometry x="380" y="605" width="120" height="40" as="geometry" />
        </mxCell>
        <mxCell id="4GRrqu41O3Qp7ZYQL6ao-18" value="" style="edgeStyle=orthogonalEdgeStyle;rounded=0;orthogonalLoop=1;jettySize=auto;html=1;entryX=0.5;entryY=0;entryDx=0;entryDy=0;entryPerimeter=0;" edge="1" parent="1" source="4GRrqu41O3Qp7ZYQL6ao-20" target="4GRrqu41O3Qp7ZYQL6ao-29">
          <mxGeometry relative="1" as="geometry">
            <mxPoint x="217.5" y="880" as="targetPoint" />
          </mxGeometry>
        </mxCell>
        <mxCell id="4GRrqu41O3Qp7ZYQL6ao-19" style="edgeStyle=orthogonalEdgeStyle;rounded=0;orthogonalLoop=1;jettySize=auto;html=1;" edge="1" parent="1" source="4GRrqu41O3Qp7ZYQL6ao-20" target="4GRrqu41O3Qp7ZYQL6ao-22">
          <mxGeometry relative="1" as="geometry" />
        </mxCell>
        <mxCell id="4GRrqu41O3Qp7ZYQL6ao-20" value="Permit Ex. Date &amp;gt; 10 Days" style="strokeWidth=2;html=1;shape=mxgraph.flowchart.decision;whiteSpace=wrap;fillColor=#FFFFFF;" vertex="1" parent="1">
          <mxGeometry x="145" y="700" width="150" height="110" as="geometry" />
        </mxCell>
        <mxCell id="4GRrqu41O3Qp7ZYQL6ao-21" value="Yes" style="text;html=1;strokeColor=none;fillColor=none;align=center;verticalAlign=middle;whiteSpace=wrap;rounded=0;" vertex="1" parent="1">
          <mxGeometry x="270" y="590" width="60" height="30" as="geometry" />
        </mxCell>
        <mxCell id="4GRrqu41O3Qp7ZYQL6ao-22" value="Permit status&lt;br&gt;&amp;nbsp;Expiring Soon" style="rounded=1;whiteSpace=wrap;html=1;fontSize=12;glass=0;strokeWidth=1;shadow=0;fillColor=#FF3333;" vertex="1" parent="1">
          <mxGeometry x="380" y="735" width="120" height="40" as="geometry" />
        </mxCell>
        <mxCell id="4GRrqu41O3Qp7ZYQL6ao-23" value="No" style="text;html=1;strokeColor=none;fillColor=none;align=center;verticalAlign=middle;whiteSpace=wrap;rounded=0;" vertex="1" parent="1">
          <mxGeometry x="220" y="670" width="60" height="30" as="geometry" />
        </mxCell>
        <mxCell id="4GRrqu41O3Qp7ZYQL6ao-24" value="Yes" style="text;html=1;strokeColor=none;fillColor=none;align=center;verticalAlign=middle;whiteSpace=wrap;rounded=0;" vertex="1" parent="1">
          <mxGeometry x="300" y="730" width="60" height="30" as="geometry" />
        </mxCell>
        <mxCell id="4GRrqu41O3Qp7ZYQL6ao-25" value="No" style="text;html=1;strokeColor=none;fillColor=none;align=center;verticalAlign=middle;whiteSpace=wrap;rounded=0;" vertex="1" parent="1">
          <mxGeometry x="220" y="840" width="60" height="30" as="geometry" />
        </mxCell>
        <mxCell id="4GRrqu41O3Qp7ZYQL6ao-26" style="edgeStyle=orthogonalEdgeStyle;rounded=0;orthogonalLoop=1;jettySize=auto;html=1;exitX=0;exitY=0;exitDx=0;exitDy=0;entryX=0;entryY=1;entryDx=0;entryDy=0;" edge="1" parent="1" source="4GRrqu41O3Qp7ZYQL6ao-23" target="4GRrqu41O3Qp7ZYQL6ao-23">
          <mxGeometry relative="1" as="geometry" />
        </mxCell>
        <mxCell id="4GRrqu41O3Qp7ZYQL6ao-27" style="edgeStyle=orthogonalEdgeStyle;rounded=0;orthogonalLoop=1;jettySize=auto;html=1;exitX=1;exitY=0.5;exitDx=0;exitDy=0;exitPerimeter=0;" edge="1" parent="1" source="4GRrqu41O3Qp7ZYQL6ao-29">
          <mxGeometry relative="1" as="geometry">
            <mxPoint x="410" y="950" as="targetPoint" />
          </mxGeometry>
        </mxCell>
        <mxCell id="4GRrqu41O3Qp7ZYQL6ao-28" style="edgeStyle=orthogonalEdgeStyle;rounded=0;orthogonalLoop=1;jettySize=auto;html=1;exitX=0.5;exitY=1;exitDx=0;exitDy=0;exitPerimeter=0;entryX=0.5;entryY=0;entryDx=0;entryDy=0;" edge="1" parent="1" source="4GRrqu41O3Qp7ZYQL6ao-29" target="4GRrqu41O3Qp7ZYQL6ao-32">
          <mxGeometry relative="1" as="geometry" />
        </mxCell>
        <mxCell id="4GRrqu41O3Qp7ZYQL6ao-29" value="Permit Ex Date &amp;gt; 0 Days&amp;nbsp;" style="strokeWidth=2;html=1;shape=mxgraph.flowchart.decision;whiteSpace=wrap;fillColor=#FFFFFF;" vertex="1" parent="1">
          <mxGeometry x="140" y="890" width="160" height="120" as="geometry" />
        </mxCell>
        <mxCell id="4GRrqu41O3Qp7ZYQL6ao-30" value="Permit status&lt;br&gt;Expired" style="rounded=1;whiteSpace=wrap;html=1;fontSize=12;glass=0;strokeWidth=1;shadow=0;fillColor=#FF3333;" vertex="1" parent="1">
          <mxGeometry x="410" y="930" width="120" height="40" as="geometry" />
        </mxCell>
        <mxCell id="4GRrqu41O3Qp7ZYQL6ao-31" value="Yes" style="text;html=1;strokeColor=none;fillColor=none;align=center;verticalAlign=middle;whiteSpace=wrap;rounded=0;" vertex="1" parent="1">
          <mxGeometry x="350" y="920" width="60" height="30" as="geometry" />
        </mxCell>
        <mxCell id="4GRrqu41O3Qp7ZYQL6ao-32" value="Granted" style="rounded=1;whiteSpace=wrap;html=1;fontSize=12;glass=0;strokeWidth=1;shadow=0;fillColor=#00CC00;" vertex="1" parent="1">
          <mxGeometry x="160" y="1060" width="120" height="40" as="geometry" />
        </mxCell>
        <mxCell id="4GRrqu41O3Qp7ZYQL6ao-33" value="No" style="text;html=1;strokeColor=none;fillColor=none;align=center;verticalAlign=middle;whiteSpace=wrap;rounded=0;" vertex="1" parent="1">
          <mxGeometry x="160" y="310" width="60" height="30" as="geometry" />
        </mxCell>
        <mxCell id="4GRrqu41O3Qp7ZYQL6ao-34" value="Employee" style="text;html=1;strokeColor=none;fillColor=none;align=center;verticalAlign=middle;whiteSpace=wrap;rounded=0;" vertex="1" parent="1">
          <mxGeometry x="145" y="10" width="60" height="30" as="geometry" />
        </mxCell>
        <mxCell id="f8aLjEW6WF-jgsMXcvVk-5" value="Yes" style="text;html=1;strokeColor=none;fillColor=none;align=center;verticalAlign=middle;whiteSpace=wrap;rounded=0;" vertex="1" parent="1">
          <mxGeometry x="270" y="200" width="60" height="30" as="geometry" />
        </mxCell>
      </root>
    </mxGraphModel>
  </diagram>
</mxfile>
